<svg version="1.1" id="Layer_1" xmlns="http://www.w3.org/2000/svg" xmlns:xlink="http://www.w3.org/1999/xlink" x="0px" y="0px"
	 viewBox="0 0 502 500" style="enable-background:new 0 0 502 500;" xml:space="preserve">
<style type="text/css">
	.icon-st0{fill:url(#SVGICONID_1_);}
</style>
<title>Icon_TransparentBG</title>
<linearGradient id="SVGICONID_1_" gradientUnits="userSpaceOnUse" x1="114.7431" y1="383.2419" x2="385.2469" y2="112.7481" gradientTransform="matrix(1 0 0 -1 0 496)">
	<stop  offset="0" style="stop-color:#FFA05E"/>
	<stop  offset="0.19" style="stop-color:#FF9A5E"/>
	<stop  offset="0.45" style="stop-color:#FF885E"/>
	<stop  offset="0.75" style="stop-color:#FF6A5E"/>
	<stop  offset="1" style="stop-color:#FF4C5E"/>
</linearGradient>
<path class="icon-st0" d="M418.2,350.3c-12.2,12.2-32.3,11.9-45-0.6c-20-20.2-1.9-38.8-21.3-59c-17.8-17-34.4-5-51.9-15.6
	c-14.9-8.6-20-27.6-11.4-42.5c2.7-4.7,6.6-8.6,11.3-11.4c17.6-10.8,34.2,1.4,52.1-15.8c19.4-20.2,1.3-38.8,21.3-59
	c12.7-12.5,32.8-12.8,45-0.6s11.9,32.3-0.6,45c-20.2,20-38.8,1.9-59,21.3c-11.8,12.4-9.7,24.1-10.8,36c1.1,11.9-1.1,23.7,10.8,36.1
	c20.2,19.3,38.8,1.3,59,21.2C430.1,318,430.4,338,418.2,350.3z M82.4,190.7c20.2,20,38.8,1.9,59,21.2c11.9,12.4,9.7,24.2,10.8,36.1
	c-1.1,11.9,1.1,23.7-10.8,36c-20.2,19.4-38.8,1.3-59,21.2c-12.5,12.7-12.8,32.8-0.6,45s32.3,11.9,45-0.6c20-20.2,1.9-38.8,21.2-59
	c17.8-17.1,34.5-5,52.1-15.8c14.8-8.7,19.8-27.8,11.2-42.6c-2.7-4.7-6.6-8.6-11.3-11.3c-17.5-10.6-34.1,1.4-51.9-15.6
	c-19.4-20.2-1.3-38.8-21.3-59c-12.7-12.5-32.8-12.8-45-0.6S69.9,178,82.4,190.7z M307.3,80.4c-20,20.2-1.9,38.8-21.2,59
	c-12.4,11.9-24.2,9.7-36.1,10.8c-11.9-1.1-23.7,1.1-36-10.8c-19.4-20.2-1.3-38.8-21.2-59c-12.7-12.5-32.8-12.8-45-0.6
	s-11.9,32.3,0.6,45c20.2,20,38.8,1.9,59,21.2c17.1,17.8,5,34.5,15.8,52.1c8.7,14.8,27.8,19.8,42.6,11.2c4.7-2.7,8.6-6.6,11.3-11.3
	c10.6-17.5-1.4-34.1,15.6-51.9c20.2-19.3,38.8-1.3,59-21.2c12.5-12.7,12.8-32.8,0.6-45S320,67.9,307.3,80.4z M192.7,415.6
	c20-20.2,1.9-38.8,21.2-59c12.4-11.9,24.2-9.7,36.1-10.8c11.9,1.1,23.7-1.1,36,10.8c19.4,20.2,1.3,38.8,21.2,59
	c12.7,12.5,32.8,12.8,45,0.6s11.9-32.3-0.6-45c-20.2-20-38.8-1.9-59-21.2c-17.1-17.8-5-34.5-15.8-52.1
	c-9.1-14.9-28.6-19.6-43.5-10.4c-2,1.2-3.8,2.6-5.5,4.2c-1.9,1.9-3.5,4-4.8,6.3c-10.6,17.5,1.4,34.1-15.6,51.9
	c-20.2,19.3-38.8,1.3-59,21.3c-12.5,12.7-12.8,32.8-0.6,45S180,428.1,192.7,415.6z M463.3,218.1c-16.5,0-29.9,13.4-29.9,29.9
	s13.4,29.9,29.9,29.9c16.5,0,29.9-13.4,29.9-29.9C493.2,231.5,479.8,218.1,463.3,218.1C463.3,218.1,463.3,218.1,463.3,218.1z
	 M36.7,218.1c-16.5,0-29.9,13.4-29.9,29.9s13.4,29.9,29.9,29.9s29.9-13.4,29.9-29.9C66.6,231.5,53.2,218.1,36.7,218.1z M220.1,34.7
	c0,16.5,13.4,29.9,29.9,29.9c16.5,0,29.9-13.4,29.9-29.9c0-16.5-13.4-29.9-29.9-29.9C233.5,4.8,220.1,18.2,220.1,34.7
	C220.1,34.7,220.1,34.7,220.1,34.7z M220.1,461.3c0,16.5,13.4,29.9,29.9,29.9s29.9-13.4,29.9-29.9c0-16.5-13.4-29.9-29.9-29.9
	C233.5,431.4,220.1,444.8,220.1,461.3z"/>
</svg>
