<svg version="1.1" id="Layer_1" xmlns="http://www.w3.org/2000/svg" xmlns:xlink="http://www.w3.org/1999/xlink" x="0px" y="0px"
   viewBox="0 0 1335.2 363.8" style="enable-background:new 0 0 1335.2 363.8;" xml:space="preserve">
<style type="text/css">
  .st0{fill:#303030;}
  .st1{fill:url(#SVGID_1_);}
</style>
<title>Logo1_TransparentBG</title>
<path class="st0" d="M468.4,40v130.6h66.2v18H449V40H468.4z"/>
<path class="st0" d="M635.6,133.6v8.7h-81.3c1.5,19.5,14.6,31.6,33.1,31.6c14.9,0,24.4-5.7,28.9-17.4h18.3
  c-6.6,21.4-23.1,34.4-47.6,34.4c-15.1,0-27.6-5.1-37.2-15.3s-14.4-23.6-14.4-40.3c0-16.4,4.7-29.7,14.2-40.1
  c9.6-10.6,21.9-15.9,37.4-15.9C616,79.3,635.6,98.6,635.6,133.6z M554.5,126h62.6c-0.2-18-12.3-29.7-30.2-29.7
  C568.9,96.2,556.8,108.3,554.5,126L554.5,126z"/>
<path class="st0" d="M659.4,61c-6.9,0-12.4-5.6-12.4-12.4c0-6.9,5.6-12.4,12.4-12.4c0,0,0,0,0,0c6.9,0,12.4,5.6,12.4,12.4
  C671.8,55.4,666.3,61,659.4,61C659.4,61,659.4,61,659.4,61z M668.6,81.6v107h-18.3v-107H668.6z"/>
<path class="st0" d="M745.3,88.6c6.6,6.2,10,14.4,10.2,24.4h-18.7c-0.2-11.3-5.7-16.8-17-16.8c-10.8,0-16.3,6-16.3,14.4
  c0,8.3,4.2,11.9,20.2,15.5c25.5,5.9,35,14.9,35,32.1c0,20.4-15.5,32.7-37.6,32.7c-24.4,0-38.4-13.6-39.1-34.8h18.7
  c0.2,11.9,7.2,17.8,20.8,17.8c11.9,0,18.5-5.9,18.5-14.4c0-9.1-5.1-13.2-22.3-17.2c-22.9-5.3-32.9-13.6-32.9-30.6
  c-0.2-8.6,3.2-16.9,9.3-22.9c6.4-6.4,15.1-9.6,26.1-9.5C730.6,79.3,738.9,82.4,745.3,88.6z"/>
<path class="st0" d="M864.8,133.6v8.7h-81.3c1.5,19.5,14.7,31.6,33.1,31.6c14.9,0,24.4-5.7,28.9-17.4h18.3
  c-6.6,21.4-23.1,34.4-47.6,34.4c-15.1,0-27.6-5.1-37.2-15.3s-14.4-23.6-14.4-40.3c0-16.4,4.7-29.7,14.2-40.1
  c9.6-10.6,21.9-15.9,37.4-15.9C845.3,79.3,864.8,98.6,864.8,133.6z M783.7,126h62.6c-0.2-18-12.3-29.7-30.2-29.7
  C798.2,96.2,786.1,108.3,783.7,126L783.7,126z"/>
<path class="st0" d="M929.7,98.8c-8.7,0-15.9,2.5-21.7,7.9c-6.4,5.7-9.6,14.2-9.8,25.3v56.7H880v-107h16.3l1.3,18.7
  c4-11,15.1-19.8,32.1-19.8V98.8z"/>
<path class="st0" d="M996.1,88.6c6.6,6.2,10,14.4,10.2,24.4h-18.7c-0.2-11.3-5.7-16.8-17-16.8c-10.8,0-16.3,6-16.3,14.4
  c0,8.3,4.2,11.9,20.2,15.5c25.5,5.9,35,14.9,35,32.1c0,20.4-15.5,32.7-37.6,32.7c-24.4,0-38.4-13.6-39.1-34.8h18.7
  c0.2,11.9,7.2,17.8,20.8,17.8c11.9,0,18.5-5.9,18.5-14.4c0-9.1-5.1-13.2-22.3-17.2c-22.9-5.3-32.9-13.6-32.9-30.6
  c-0.2-8.6,3.2-16.9,9.3-22.9c6.4-6.4,15.1-9.6,26.1-9.5C981.4,79.3,989.7,82.4,996.1,88.6z"/>
<path class="st0" d="M1108.7,95c10.2,10.4,15.3,23.8,15.3,40.1c0,16.4-5.1,29.7-15.3,40.1c-10,10.4-22.9,15.7-38.8,15.7
  s-29.1-5.3-39.3-15.7c-10-10.4-15.1-23.8-15.1-40.1s5.1-29.7,15.1-40.1c10.2-10.4,23.3-15.7,39.3-15.7S1098.7,84.6,1108.7,95z
   M1044.1,107.3c-6.6,7.2-9.8,16.6-9.8,27.8s3.2,20.4,9.8,27.8s15.3,11,25.9,11c10.4,0,18.9-3.6,25.3-11c6.6-7.4,9.8-16.6,9.8-27.8
  s-3.2-20.6-9.8-27.8c-6.4-7.4-14.9-11-25.3-11C1059.4,96.2,1050.7,99.8,1044.1,107.3L1044.1,107.3z"/>
<path class="st0" d="M1219.6,119.4v69.2h-18.5v-66.2c0-16.4-7.9-25.3-20.8-25.3c-14.4,0-24.8,13-24.8,34.2v57.3h-18.3v-107h16.3
  l1.1,14.6c6-11.2,15.9-17,30.2-17C1207.1,79.3,1219.6,95,1219.6,119.4z"/>
<path class="st0" d="M475.7,222.4c19.6,0,32.1,11.6,32.1,29.6c0,12.9-6.9,22.6-18.6,26.6l22.8,41.9h-14.6L476,280.7h-14.3v39.8
  h-12.8v-98.1H475.7z M461.7,234.3v34.9h14c11.6,0,19.2-6.5,19.2-17.2c0-11.1-7.6-17.7-19.2-17.7H461.7z"/>
<path class="st0" d="M578.8,284.2v5.8h-53.7c1,12.9,9.7,20.9,21.9,20.9c9.8,0,16.1-3.8,19.1-11.5h12c-4.3,14.2-15.3,22.7-31.4,22.7
  c-10,0-18.2-3.4-24.5-10.1s-9.5-15.5-9.5-26.6c0-10.8,3.1-19.6,9.4-26.5s14.4-10.5,24.7-10.5C565.9,248.4,578.8,261.1,578.8,284.2z
   M525.3,279.2h41.3c-0.1-11.9-8.1-19.6-19.9-19.6S526.8,267.6,525.3,279.2L525.3,279.2z"/>
<path class="st0" d="M625.6,254.5c4.3,4.1,6.6,9.5,6.7,16.1H620c-0.1-7.4-3.8-11.1-11.2-11.1c-7.2,0-10.8,3.9-10.8,9.5
  s2.8,7.8,13.3,10.2c16.8,3.9,23.1,9.8,23.1,21.2c0,13.5-10.2,21.6-24.8,21.6c-16.1,0-25.4-9-25.8-23h12.3
  c0.1,7.8,4.8,11.8,13.7,11.8c7.8,0,12.2-3.9,12.2-9.5c0-6-3.4-8.7-14.7-11.4c-15.1-3.5-21.7-9-21.7-20.2c-0.1-5.7,2.1-11.1,6.2-15.1
  c4.2-4.2,9.9-6.3,17.2-6.3C615.9,248.4,621.4,250.5,625.6,254.5z"/>
<path class="st0" d="M704.6,284.2v5.8h-53.7c1,12.9,9.7,20.9,21.9,20.9c9.8,0,16.1-3.8,19.1-11.5h12c-4.3,14.2-15.3,22.7-31.4,22.7
  c-10,0-18.2-3.4-24.5-10.1s-9.5-15.5-9.5-26.6c0-10.8,3.1-19.6,9.4-26.5s14.4-10.5,24.7-10.5C691.6,248.4,704.6,261.1,704.6,284.2z
   M651,279.2h41.3c-0.1-11.9-8.1-19.6-19.9-19.6S652.6,267.6,651,279.2L651,279.2z"/>
<path class="st0" d="M763.5,273.7v46.8h-10.9l-0.6-9.7c-3.8,6.7-11.5,11.2-21.4,11.2c-12.5,0-20.6-7.7-20.6-19.9
  c0-11.1,6.6-17.9,19.8-20.5l21.6-4.1v-3.5c0-9.7-4.3-14.6-13-14.6c-8.3,0-14.4,4.6-14.4,12.9H712c0-6.6,2.7-12.8,7.6-17.2
  c4.9-4.6,11.1-6.9,18.8-6.9C754.1,248.4,763.5,257.5,763.5,273.7z M751.3,288.1l-19.3,4.2c-6.2,1.5-9.8,3.9-9.8,9.7
  s3.9,8.8,10.8,8.8c6.2,0,10.9-2.4,14.3-7c2.7-3.8,4.2-8.3,4.1-13L751.3,288.1z"/>
<path class="st0" d="M809.2,261.3c-5.8,0-10.5,1.7-14.3,5.2c-4.2,3.8-6.3,9.4-6.4,16.7v37.4h-12.1v-70.6h10.8l0.8,12.3
  c2.7-7.3,10-13,21.2-13V261.3z"/>
<path class="st0" d="M874.8,271.9h-12.1c-2.8-7.9-10.1-12.3-19.2-12.3c-6.1-0.1-12,2.6-15.8,7.3c-4.1,4.9-6.2,11.1-6.2,18.5
  s2.1,13.3,6.3,18.2c3.9,4.8,9.8,7.4,16,7.3c9,0,16.5-4.9,18.9-12.3H875c-3.8,15.1-15.8,23.5-31.5,23.5c-9.9,0-18.2-3.5-24.7-10.4
  s-9.7-15.7-9.7-26.4s3.2-19.5,9.7-26.5c6.3-6.9,15.3-10.7,24.7-10.5C859.3,248.4,871.5,256.8,874.8,271.9z"/>
<path class="st0" d="M895.5,218.2v40.5c2.9-6,9.8-10.4,19.3-10.4c14.7,0,23,10.4,23,26.5v45.7h-12.2v-43.7
  c0-10.8-5.2-16.7-13.7-16.7c-9.5,0-16.4,8.5-16.4,22.6v37.8h-12.1V218.2H895.5z"/>
<path class="st0" d="M1066.9,251.6h-14.2c-4.6-12.8-14.4-19.1-29.6-19.1c-10.2,0-18.6,3.6-25.2,11.1s-9.8,16.5-9.8,27.9
  s3.2,20.5,9.8,27.9c6.6,7.4,15.1,11.1,25.7,11.1c18.6,0,30.6-9.7,31.1-28.3h-29.4v-11.9h42.9v6.6c0,14.2-3.9,25.4-11.9,33.5
  s-18.8,12.1-32.7,12.1c-14.2,0-25.9-4.8-35-14.4s-13.7-21.7-13.7-36.4s4.5-26.8,13.6-36.4s20.7-14.4,34.9-14.4
  C1045.9,220.6,1061.3,232.1,1066.9,251.6z"/>
<path class="st0" d="M1112.6,261.3c-5.8,0-10.5,1.7-14.3,5.2c-4.2,3.8-6.3,9.4-6.4,16.7v37.4h-12.1v-70.6h10.8l0.8,12.3
  c2.7-7.3,10-13,21.2-13V261.3z"/>
<path class="st0" d="M1173.9,258.7c6.7,6.9,10.1,15.7,10.1,26.5c0,10.8-3.4,19.6-10.1,26.5c-6.6,6.9-15.1,10.4-25.7,10.4
  s-19.2-3.5-25.9-10.4s-10-15.7-10-26.5s3.4-19.6,10-26.5s15.4-10.4,25.9-10.4S1167.3,251.9,1173.9,258.7z M1131.3,266.8
  c-4.3,4.8-6.4,10.9-6.4,18.4s2.1,13.5,6.4,18.4s10.1,7.3,17.1,7.3s12.5-2.4,16.7-7.3s6.4-10.9,6.4-18.4s-2.1-13.6-6.4-18.4
  s-9.8-7.3-16.7-7.3S1135.6,262,1131.3,266.8L1131.3,266.8z"/>
<path class="st0" d="M1245.5,249.9v70.6h-10.8l-0.7-9.7c-3.5,7.4-10.1,11.2-19.5,11.2c-14.7,0-22.7-10.2-22.7-26.5v-45.7h12.1v43.7
  c0,11.1,4.9,16.8,13.4,16.8c9.4,0,16.1-8,16.1-21.3v-39.2H1245.5z"/>
<path class="st0" d="M1318.8,258.9c6,6.9,9.1,15.7,9.1,26.4s-3.1,19.3-9.2,26.3s-14,10.5-23.8,10.5c-11.1,0-19.3-4.6-23.4-11.2v39.8
  h-12.2V249.9h10.9l0.6,10.4c5.5-8,13.6-11.9,24.2-11.9C1304.8,248.4,1312.7,251.9,1318.8,258.9z M1277.6,266.6
  c-4.3,4.6-6.4,10.5-6.4,17.9v0.7c0,7.6,2.1,13.7,6.4,18.4s9.5,7,15.4,7c6.1,0.2,12-2.4,16.1-7c4.2-4.8,6.3-10.9,6.3-18.4
  c0-15.1-8.8-25.5-22.3-25.5C1287.2,259.6,1281.5,262.2,1277.6,266.6z"/>
<linearGradient id="SVGID_1_" gradientUnits="userSpaceOnUse" x1="86.4756" y1="279.4469" x2="265.0607" y2="100.8618" gradientTransform="matrix(1 0 0 -1 0 369.4187)">
  <stop  offset="0" style="stop-color:#FFA05E"/>
  <stop  offset="0.19" style="stop-color:#FF9A5E"/>
  <stop  offset="0.45" style="stop-color:#FF885E"/>
  <stop  offset="0.75" style="stop-color:#FF6A5E"/>
  <stop  offset="1" style="stop-color:#FF4C5E"/>
</linearGradient>
<path class="st1" d="M286.8,246.8c-8.1,8.1-21.3,7.9-29.7-0.4c-13.2-13.3-1.3-25.6-14-39c-11.7-11.2-22.7-3.3-34.2-10.3
  c-9.8-5.6-13.2-18.2-7.6-28c1.8-3.1,4.4-5.7,7.5-7.5c11.6-7.1,22.6,0.9,34.4-10.4c12.8-13.3,0.9-25.6,14-38.9
  c8.3-8.3,21.6-8.5,29.7-0.4s7.9,21.3-0.4,29.7c-13.3,13.2-25.6,1.3-39,14c-7.8,8.1-6.4,15.9-7.1,23.8c0.7,7.9-0.7,15.7,7.1,23.8
  c13.3,12.8,25.6,0.9,39,14C294.7,225.5,294.9,238.7,286.8,246.8z M65.2,141.5c13.3,13.2,25.6,1.3,39,14c7.8,8.2,6.4,15.9,7.1,23.8
  c-0.7,7.9,0.7,15.6-7.1,23.8c-13.3,12.8-25.6,0.9-39,14c-8.3,8.4-8.5,21.6-0.4,29.7s21.3,7.9,29.7-0.4c13.2-13.3,1.2-25.6,14-39
  c11.8-11.3,22.8-3.3,34.4-10.4c1.5-0.9,2.9-1.9,4.1-3.1c7.9-8.2,7.9-21.1,0-29.3c-1.2-1.2-2.6-2.3-4.2-3.2
  c-11.6-7-22.5,0.9-34.3-10.3c-12.8-13.3-0.9-25.6-14-39c-8.4-8.3-21.6-8.5-29.7-0.4S56.9,133.1,65.2,141.5z M213.6,68.7
  c-13.2,13.3-1.2,25.6-14,39c-8.2,7.8-16,6.4-23.8,7.1c-7.9-0.7-15.6,0.7-23.8-7.1c-12.8-13.3-0.9-25.6-14-39
  c-8.4-8.3-21.6-8.5-29.7-0.4s-7.9,21.3,0.4,29.7c13.3,13.2,25.6,1.2,39,14c11.3,11.8,3.3,22.8,10.4,34.4c0.9,1.5,1.9,2.8,3.1,4.1
  c8.2,7.9,21.1,7.9,29.3,0c1.2-1.2,2.3-2.6,3.2-4.2c7-11.6-0.9-22.5,10.3-34.3c13.3-12.8,25.6-0.9,39-14c8.3-8.4,8.5-21.6,0.4-29.7
  S222,60.4,213.6,68.7z M138,289.9c13.2-13.3,1.3-25.6,14-39c8.2-7.8,15.9-6.4,23.8-7.1c7.9,0.7,15.6-0.7,23.8,7.1
  c12.8,13.3,0.9,25.6,14,39c8.3,8.3,21.6,8.5,29.7,0.4s7.9-21.3-0.4-29.7c-13.3-13.2-25.6-1.3-39-14c-11.3-11.8-3.3-22.8-10.4-34.4
  c-0.9-1.5-1.9-2.8-3.1-4.1c-8.2-7.9-21.1-7.9-29.3,0c-1.2,1.2-2.3,2.6-3.2,4.2c-7,11.6,0.9,22.5-10.3,34.2
  c-13.3,12.8-25.6,0.9-39,14c-8.3,8.4-8.5,21.6-0.4,29.7S129.6,298.2,138,289.9z M316.6,159.5c-10.9,0-19.7,8.8-19.7,19.7
  s8.8,19.7,19.7,19.7c10.9,0,19.7-8.8,19.7-19.7c0,0,0,0,0,0C336.3,168.4,327.5,159.5,316.6,159.5z M35,159.5
  c-10.9,0-19.7,8.8-19.7,19.8S24.1,199,35,199c10.9,0,19.7-8.8,19.7-19.7C54.7,168.4,45.9,159.6,35,159.5L35,159.5z M156,38.5
  c0,10.9,8.9,19.7,19.8,19.7c10.9,0,19.7-8.9,19.7-19.8c0-10.9-8.9-19.7-19.7-19.7C164.9,18.7,156.1,27.5,156,38.5
  C156,38.5,156,38.5,156,38.5z M156,320.1c0,10.9,8.8,19.8,19.7,19.8s19.8-8.8,19.8-19.7c0-10.9-8.8-19.8-19.7-19.8c0,0,0,0,0,0
  C164.9,300.3,156.1,309.2,156,320.1z"/>
</svg>
