<?xml version="1.0" encoding="utf-8"?>
<!-- Generator: Adobe Illustrator 21.1.0, SVG Export Plug-In . SVG Version: 6.00 Build 0)  -->
<svg version="1.1" id="Layer_1" xmlns="http://www.w3.org/2000/svg" xmlns:xlink="http://www.w3.org/1999/xlink" x="0px" y="0px"
	 viewBox="0 0 471 400" style="enable-background:new 0 0 471 400;" xml:space="preserve">
<style type="text/css">
	.st0{fill:#1F77B4;}
	.st1{font-family:'Impact';}
	.st2{font-size:30px;}
	.st3{fill:#AEC7E8;}
	.st4{font-size:25.0948px;}
	.st5{fill:#FF7F0E;}
	.st6{font-size:24.1415px;}
	.st7{fill:#FFBB78;}
	.st8{font-size:23.5314px;}
	.st9{fill:#2CA02C;}
	.st10{font-size:23.1953px;}
	.st11{fill:#98DF8A;}
	.st12{font-size:22.4359px;}
	.st13{fill:#D62728;}
	.st14{font-size:22.873px;}
	.st15{fill:#FF9896;}
	.st16{font-size:22.4376px;}
	.st17{fill:#9467BD;}
	.st18{font-size:21.2882px;}
	.st19{fill:#C5B0D5;}
	.st20{font-size:21.4647px;}
	.st21{fill:#8C564B;}
	.st22{font-size:20.6626px;}
	.st23{fill:#C49C94;}
	.st24{font-size:20.2448px;}
	.st25{fill:#E377C2;}
	.st26{font-size:20.2201px;}
	.st27{fill:#F7B6D2;}
	.st28{font-size:20.1621px;}
	.st29{fill:#7F7F7F;}
	.st30{font-size:19.5828px;}
	.st31{fill:#C7C7C7;}
	.st32{font-size:19.9602px;}
	.st33{fill:#BCBD22;}
	.st34{font-size:19.5227px;}
	.st35{fill:#DBDB8D;}
	.st36{font-size:19.4137px;}
	.st37{fill:#17BECF;}
	.st38{font-size:19.2465px;}
	.st39{fill:#9EDAE5;}
	.st40{font-size:19.2103px;}
	.st41{font-size:19.1797px;}
	.st42{font-size:19.0698px;}
	.st43{font-size:19.0096px;}
	.st44{font-size:19.5978px;}
	.st45{font-size:19.5741px;}
	.st46{font-size:18.7071px;}
	.st47{font-size:18.4824px;}
	.st48{font-size:18.4773px;}
	.st49{font-size:18.4478px;}
	.st50{font-size:18.4099px;}
	.st51{font-size:18.2562px;}
	.st52{font-size:18.2101px;}
	.st53{font-size:18.9985px;}
	.st54{font-size:18.1268px;}
	.st55{font-size:18.168px;}
	.st56{font-size:17.9849px;}
	.st57{font-size:17.8649px;}
	.st58{font-size:17.7285px;}
	.st59{font-size:17.6676px;}
	.st60{font-size:17.6191px;}
	.st61{font-size:17.5651px;}
	.st62{font-size:17.4341px;}
	.st63{font-size:17.3898px;}
	.st64{font-size:17.2576px;}
	.st65{font-size:17.0108px;}
	.st66{font-size:17.9196px;}
	.st67{font-size:16.1308px;}
	.st68{font-size:16.9282px;}
	.st69{font-size:16.9528px;}
	.st70{font-size:16.6932px;}
	.st71{font-size:16.5091px;}
	.st72{font-size:16.297px;}
	.st73{font-size:16.2893px;}
	.st74{font-size:16.2384px;}
	.st75{font-size:16.8179px;}
	.st76{font-size:16.1142px;}
	.st77{font-size:16.1043px;}
	.st78{font-size:16.0961px;}
	.st79{font-size:16.0337px;}
	.st80{font-size:16.02px;}
	.st81{font-size:16.0113px;}
	.st82{font-size:16.0017px;}
	.st83{font-size:16.786px;}
	.st84{font-size:15.8599px;}
	.st85{font-size:15.8338px;}
	.st86{font-size:15.7771px;}
	.st87{font-size:15.7617px;}
	.st88{font-size:15.731px;}
	.st89{font-size:15.7087px;}
	.st90{font-size:15.6918px;}
	.st91{font-size:15.6586px;}
	.st92{font-size:15.5317px;}
	.st93{font-size:15.5172px;}
	.st94{font-size:15.3856px;}
	.st95{font-size:15.3406px;}
	.st96{font-size:15.3125px;}
	.st97{font-size:15.2945px;}
	.st98{font-size:15.2796px;}
	.st99{font-size:15.2345px;}
	.st100{font-size:15.0204px;}
	.st101{font-size:14.1416px;}
	.st102{font-size:14.9989px;}
	.st103{font-size:14.8944px;}
	.st104{font-size:14.866px;}
	.st105{font-size:14.8092px;}
	.st106{font-size:14.7782px;}
	.st107{font-size:14.7272px;}
	.st108{font-size:14.6673px;}
	.st109{font-size:14.6403px;}
	.st110{font-size:14.5983px;}
	.st111{font-size:14.5204px;}
	.st112{font-size:14.4301px;}
	.st113{font-size:14.393px;}
	.st114{font-size:14.3272px;}
	.st115{font-size:14.2571px;}
	.st116{font-size:14.2243px;}
	.st117{font-size:14.2193px;}
	.st118{font-size:14.9099px;}
	.st119{font-size:14.9426px;}
	.st120{font-size:13.9973px;}
	.st121{font-size:13.7037px;}
	.st122{font-size:13.6975px;}
	.st123{font-size:13.5473px;}
	.st124{font-size:13.5009px;}
	.st125{font-size:13.4802px;}
	.st126{font-size:13.4411px;}
	.st127{font-size:13.7124px;}
	.st128{font-size:13.3156px;}
	.st129{font-size:13.2379px;}
	.st130{font-size:13.231px;}
	.st131{font-size:13.2037px;}
	.st132{font-size:13.1746px;}
	.st133{font-size:13.1326px;}
	.st134{font-size:13.1249px;}
	.st135{font-size:13.3269px;}
	.st136{font-size:12.9609px;}
	.st137{font-size:12.9366px;}
	.st138{font-size:12.8134px;}
	.st139{font-size:12.7752px;}
	.st140{font-size:12.7749px;}
	.st141{font-size:12.7116px;}
	.st142{font-size:12.6612px;}
	.st143{font-size:12.6583px;}
	.st144{font-size:12.6247px;}
	.st145{font-size:12.6228px;}
	.st146{font-size:12.6188px;}
	.st147{font-size:12.502px;}
	.st148{font-size:12.3675px;}
	.st149{font-size:12.3669px;}
	.st150{font-size:12.3049px;}
	.st151{font-size:12.1509px;}
	.st152{font-size:12.0366px;}
	.st153{font-size:11.3765px;}
	.st154{font-size:11.9255px;}
	.st155{font-size:11.8312px;}
	.st156{font-size:11.6032px;}
	.st157{font-size:11.4545px;}
	.st158{font-size:11.844px;}
	.st159{font-size:11.3729px;}
	.st160{font-size:11.3451px;}
	.st161{font-size:11.3238px;}
	.st162{font-size:11.0295px;}
	.st163{font-size:11.9181px;}
	.st164{font-size:10.959px;}
	.st165{font-size:10.9456px;}
	.st166{font-size:10.0454px;}
	.st167{font-size:10.8232px;}
	.st168{font-size:10.7672px;}
	.st169{font-size:10.6753px;}
	.st170{font-size:10.5632px;}
	.st171{font-size:10.5391px;}
	.st172{font-size:10.4165px;}
	.st173{font-size:10.4093px;}
	.st174{font-size:10.3922px;}
	.st175{font-size:10.3704px;}
	.st176{font-size:10.2461px;}
	.st177{font-size:10.1215px;}
	.st178{font-size:10.9408px;}
</style>
<g transform="translate(246,200)">
	<text transform="matrix(6.123234e-17 1 -1 6.123234e-17 -5 73.6611)" class="st0 st1 st2">guy</text>
	<text transform="matrix(6.123234e-17 1 -1 6.123234e-17 43 15.4076)" class="st3 st1 st4">guys</text>
	<text transform="matrix(1 0 0 1 6.2239 -8)" class="st5 st1 st6">certainly</text>
	<text transform="matrix(1 0 0 1 -85.6894 -50)" class="st7 st1 st8">obviously</text>
	<text transform="matrix(6.123234e-17 1 -1 6.123234e-17 19 14.8553)" class="st9 st1 st10">cocky</text>
	<text transform="matrix(6.123234e-17 1 -1 6.123234e-17 45 -146.0131)" class="st11 st1 st12">hard_nosed</text>
	<text transform="matrix(6.123234e-17 1 -1 6.123234e-17 -38 -136.7571)" class="st13 st1 st14">decent</text>
	<text transform="matrix(6.123234e-17 1 -1 6.123234e-17 -13 -15.9858)" class="st15 st1 st16">probably</text>
	<text transform="matrix(1 0 0 1 24.1372 91)" class="st17 st1 st18">astute</text>
	<text transform="matrix(6.123234e-17 1 -1 6.123234e-17 -134 68.0643)" class="st19 st1 st20">flashy</text>
	<text transform="matrix(1 0 0 1 -81.2551 61)" class="st21 st1 st22">humble</text>
	<text transform="matrix(6.123234e-17 1 -1 6.123234e-17 -116 -77.901)" class="st23 st1 st24">shrewd</text>
	<text transform="matrix(1 0 0 1 -112.3689 41)" class="st25 st1 st26">better</text>
	<text transform="matrix(6.123234e-17 1 -1 6.123234e-17 -136 -96.2439)" class="st27 st1 st28">superb</text>
	<text transform="matrix(6.123234e-17 1 -1 6.123234e-17 97 62.8243)" class="st29 st1 st30">good</text>
	<text transform="matrix(1 0 0 1 -67.7858 3)" class="st31 st1 st32">legit</text>
	<text transform="matrix(6.123234e-17 1 -1 6.123234e-17 31 94.4011)" class="st33 st1 st34">likes</text>
	<text transform="matrix(6.123234e-17 1 -1 6.123234e-17 67 -135.5951)" class="st35 st1 st36">hopefully</text>
	<text transform="matrix(1 0 0 1 -46.6339 86)" class="st37 st1 st38">well</text>
	<text transform="matrix(1 0 0 1 -95.0957 78)" class="st39 st1 st40">great</text>
	<text transform="matrix(6.123234e-17 1 -1 6.123234e-17 -91 -45.7609)" class="st0 st1 st41">fella</text>
	<text transform="matrix(1 0 0 1 -72.3614 -24)" class="st3 st1 st42">going</text>
	<text transform="matrix(1 0 0 1 64.2983 41)" class="st5 st1 st43">everybody</text>
	<text transform="matrix(6.123234e-17 1 -1 6.123234e-17 -134 -33.0233)" class="st7 st1 st44">instinctive</text>
	<text transform="matrix(6.123234e-17 1 -1 6.123234e-17 -30 93.6569)" class="st9 st1 st45">brilliant</text>
	<text transform="matrix(6.123234e-17 1 -1 6.123234e-17 -89 -127.4491)" class="st11 st1 st46">smartly</text>
	<text transform="matrix(1 0 0 1 12.0817 12)" class="st13 st1 st47">likeable</text>
	<text transform="matrix(6.123234e-17 1 -1 6.123234e-17 77 1.2532)" class="st15 st1 st48">kid</text>
	<text transform="matrix(6.123234e-17 1 -1 6.123234e-17 106 -89.9027)" class="st17 st1 st49">solid</text>
	<text transform="matrix(6.123234e-17 1 -1 6.123234e-17 6 -119.3496)" class="st19 st1 st50">maybe</text>
	<text transform="matrix(6.123234e-17 1 -1 6.123234e-17 -150 -32.2668)" class="st21 st1 st51">anyway</text>
	<text transform="matrix(6.123234e-17 1 -1 6.123234e-17 -64 -172.993)" class="st23 st1 st52">unbelievable</text>
	<text transform="matrix(1 0 0 1 96.801 21)" class="st25 st1 st53">terrific</text>
	<text transform="matrix(1 0 0 1 49.8024 113)" class="st27 st1 st54">heck</text>
	<text transform="matrix(1 0 0 1 -9.7562 156)" class="st29 st1 st55">impressive</text>
	<text transform="matrix(6.123234e-17 1 -1 6.123234e-17 -159 -85.7907)" class="st31 st1 st56">alright</text>
	<text transform="matrix(1 0 0 1 65.3651 58)" class="st33 st1 st57">sure</text>
	<text transform="matrix(6.123234e-17 1 -1 6.123234e-17 -168 -6.2164)" class="st35 st1 st58">honest</text>
	<text transform="matrix(1 0 0 1 -181.582 62)" class="st37 st1 st59">think</text>
	<text transform="matrix(1 0 0 1 -77.0806 96)" class="st39 st1 st60">do</text>
	<text transform="matrix(6.123234e-17 1 -1 6.123234e-17 -186 -41.5831)" class="st0 st1 st61">easygoing</text>
	<text transform="matrix(6.123234e-17 1 -1 6.123234e-17 -112 76.2459)" class="st3 st1 st62">tough</text>
	<text transform="matrix(1 0 0 1 -23.6888 -30)" class="st5 st1 st63">versatile</text>
	<text transform="matrix(1 0 0 1 82.679 -104)" class="st7 st1 st64">big</text>
	<text transform="matrix(1 0 0 1 -127.3754 -102)" class="st9 st1 st65">wise</text>
	<text transform="matrix(6.123234e-17 1 -1 6.123234e-17 -108 -11.1827)" class="st11 st1 st66">best</text>
	<text transform="matrix(6.123234e-17 1 -1 6.123234e-17 -12 -132.0547)" class="st13 st1 st67">kidding</text>
	<text transform="matrix(6.123234e-17 1 -1 6.123234e-17 122 46.2289)" class="st15 st1 st68">phenomenal</text>
	<text transform="matrix(6.123234e-17 1 -1 6.123234e-17 -182 -109.6069)" class="st17 st1 st69">splendid</text>
	<text transform="matrix(6.123234e-17 1 -1 6.123234e-17 24 -98.1679)" class="st19 st1 st70">just</text>
	<text transform="matrix(6.123234e-17 1 -1 6.123234e-17 -84 -7.7365)" class="st21 st1 st71">bad</text>
	<text transform="matrix(1 0 0 1 -228.6365 3)" class="st23 st1 st72">quick</text>
	<text transform="matrix(1 0 0 1 66.7457 -143)" class="st25 st1 st73">excellent</text>
	<text transform="matrix(6.123234e-17 1 -1 6.123234e-17 89 -72.9957)" class="st27 st1 st74">clever</text>
	<text transform="matrix(6.123234e-17 1 -1 6.123234e-17 -49 91.6576)" class="st29 st1 st75">fortunate</text>
	<text transform="matrix(1 0 0 1 101.34 -3)" class="st31 st1 st76">pretty_darn</text>
	<text transform="matrix(1 0 0 1 -23.221 174)" class="st33 st1 st77">straightforward</text>
	<text transform="matrix(1 0 0 1 -6.0989 -136)" class="st35 st1 st78">always</text>
	<text transform="matrix(6.123234e-17 1 -1 6.123234e-17 91 107.3834)" class="st37 st1 st79">comfortable</text>
	<text transform="matrix(1 0 0 1 -114.7402 137)" class="st39 st1 st80">smartest</text>
	<text transform="matrix(6.123234e-17 1 -1 6.123234e-17 142 52.4408)" class="st0 st1 st81">anyways</text>
	<text transform="matrix(1 0 0 1 105.1256 -25)" class="st3 st1 st82">unselfish</text>
	<text transform="matrix(1 0 0 1 -114.1052 159)" class="st5 st1 st83">enough</text>
	<text transform="matrix(1 0 0 1 -55.1782 19)" class="st7 st1 st84">crafty</text>
	<text transform="matrix(6.123234e-17 1 -1 6.123234e-17 -93 84.4109)" class="st9 st1 st85">neat</text>
	<text transform="matrix(1 0 0 1 -102.5643 -131)" class="st11 st1 st86">lousy</text>
	<text transform="matrix(1 0 0 1 57.3384 131)" class="st13 st1 st87">yeah</text>
	<text transform="matrix(6.123234e-17 1 -1 6.123234e-17 154 1.014)" class="st15 st1 st88">hard</text>
	<text transform="matrix(6.123234e-17 1 -1 6.123234e-17 -153 87.3997)" class="st17 st1 st89">nifty</text>
	<text transform="matrix(1 0 0 1 -7.8555 -152)" class="st19 st1 st90">smarter</text>
	<text transform="matrix(1 0 0 1 90.2786 -122)" class="st21 st1 st91">fantastic</text>
	<text transform="matrix(1 0 0 1 -226.4342 -16)" class="st23 st1 st92">crisp</text>
	<text transform="matrix(6.123234e-17 1 -1 6.123234e-17 -169 71.475)" class="st25 st1 st93">fancy</text>
	<text transform="matrix(1 0 0 1 -106.384 57)" class="st27 st1 st94">lot</text>
	<text transform="matrix(1 0 0 1 -182.3668 -113)" class="st29 st1 st95">nicely</text>
	<text transform="matrix(1 0 0 1 151.9208 48)" class="st31 st1 st96">definitely</text>
	<text transform="matrix(1 0 0 1 124.4457 -45)" class="st33 st1 st97">smart</text>
	<text transform="matrix(1 0 0 1 -171.1201 145)" class="st35 st1 st98">thinking</text>
	<text transform="matrix(6.123234e-17 1 -1 6.123234e-17 160 63.9832)" class="st37 st1 st99">handsome</text>
	<text transform="matrix(6.123234e-17 1 -1 6.123234e-17 -121 -154.4458)" class="st39 st1 st100">liked</text>
	<text transform="matrix(1 0 0 1 -239.333 75)" class="st0 st1 st101">interesting</text>
	<text transform="matrix(6.123234e-17 1 -1 6.123234e-17 123 -101.3791)" class="st3 st1 st102">damn</text>
	<text transform="matrix(6.123234e-17 1 -1 6.123234e-17 -190 80.9858)" class="st5 st1 st103">personable</text>
	<text transform="matrix(6.123234e-17 1 -1 6.123234e-17 172 5.9739)" class="st7 st1 st104">hey</text>
	<text transform="matrix(1 0 0 1 -200.5057 -133)" class="st9 st1 st105">respectful</text>
	<text transform="matrix(1 0 0 1 -12.3452 133)" class="st11 st1 st106">okay</text>
	<text transform="matrix(6.123234e-17 1 -1 6.123234e-17 -82 -172.1277)" class="st13 st1 st107">real</text>
	<text transform="matrix(6.123234e-17 1 -1 6.123234e-17 68 -56.1346)" class="st15 st1 st108">cool</text>
	<text transform="matrix(6.123234e-17 1 -1 6.123234e-17 143 -99.2539)" class="st17 st1 st109">guess</text>
	<text transform="matrix(1 0 0 1 -224.6058 54)" class="st19 st1 st110">strong</text>
	<text transform="matrix(6.123234e-17 1 -1 6.123234e-17 141 112.8403)" class="st21 st1 st111">like</text>
	<text transform="matrix(1 0 0 1 -73.4371 178)" class="st23 st1 st112">want</text>
	<text transform="matrix(6.123234e-17 1 -1 6.123234e-17 -207 89.9069)" class="st25 st1 st113">happy</text>
	<text transform="matrix(6.123234e-17 1 -1 6.123234e-17 107 129.5613)" class="st27 st1 st114">stuff</text>
	<text transform="matrix(1 0 0 1 -42.2057 -167)" class="st29 st1 st115">likable</text>
	<text transform="matrix(1 0 0 1 -228.3742 39)" class="st31 st1 st116">bunch</text>
	<text transform="matrix(6.123234e-17 1 -1 6.123234e-17 -198 -122.7459)" class="st33 st1 st117">fantastically</text>
	<text transform="matrix(6.123234e-17 1 -1 6.123234e-17 190 -36.6336)" class="st35 st1 st118">marvelous</text>
	<text transform="matrix(6.123234e-17 1 -1 6.123234e-17 -218 -77.5027)" class="st37 st1 st119">stupid</text>
	<text transform="matrix(6.123234e-17 1 -1 6.123234e-17 -214 -122.3245)" class="st39 st1 st120">dumb</text>
	<text transform="matrix(1 0 0 1 122.7048 -105)" class="st0 st1 st121">kind</text>
	<text transform="matrix(1 0 0 1 -43.1454 -147)" class="st3 st1 st122">tricky</text>
	<text transform="matrix(1 0 0 1 61.7889 72)" class="st5 st1 st123">nice</text>
	<text transform="matrix(6.123234e-17 1 -1 6.123234e-17 176 -53.5478)" class="st7 st1 st124">goofy</text>
	<text transform="matrix(1 0 0 1 165.0116 -57)" class="st9 st1 st125">you</text>
	<text transform="matrix(6.123234e-17 1 -1 6.123234e-17 128 146.3898)" class="st11 st1 st126">fellas</text>
	<text transform="matrix(1 0 0 1 -108.5291 -87)" class="st13 st1 st127">bit</text>
	<text transform="matrix(6.123234e-17 1 -1 6.123234e-17 -240 -43.7733)" class="st15 st1 st128">really</text>
	<text transform="matrix(6.123234e-17 1 -1 6.123234e-17 184 56.7645)" class="st17 st1 st129">tidy</text>
	<text transform="matrix(1 0 0 1 -233.9203 22)" class="st19 st1 st130">scrappy</text>
	<text transform="matrix(6.123234e-17 1 -1 6.123234e-17 204 -49.4643)" class="st21 st1 st131">sensible</text>
	<text transform="matrix(6.123234e-17 1 -1 6.123234e-17 31 -126.6757)" class="st23 st1 st132">very</text>
	<text transform="matrix(6.123234e-17 1 -1 6.123234e-17 158 -128.6008)" class="st25 st1 st133">pleasing</text>
	<text transform="matrix(6.123234e-17 1 -1 6.123234e-17 -243 27.9362)" class="st27 st1 st134">gotta</text>
	<text transform="matrix(1 0 0 1 34.9901 -166)" class="st29 st1 st135">awfully</text>
	<text transform="matrix(1 0 0 1 177.8237 92)" class="st31 st1 st136">huh</text>
	<text transform="matrix(6.123234e-17 1 -1 6.123234e-17 -223 84.2615)" class="st33 st1 st137">smarts</text>
	<text transform="matrix(1 0 0 1 -36.9198 -182)" class="st35 st1 st138">careful</text>
	<text transform="matrix(1 0 0 1 2.5343 -173)" class="st37 st1 st139">gutsy</text>
	<text transform="matrix(1 0 0 1 175.5323 107)" class="st39 st1 st140">nicest</text>
	<text transform="matrix(6.123234e-17 1 -1 6.123234e-17 19 106.6046)" class="st0 st1 st141">gonna</text>
	<text transform="matrix(1 0 0 1 -122.8528 -162)" class="st3 st1 st142">classy</text>
	<text transform="matrix(1 0 0 1 -26.9545 189)" class="st5 st1 st143">incredible</text>
	<text transform="matrix(1 0 0 1 -161.9963 158)" class="st7 st1 st144">lucky</text>
	<text transform="matrix(1 0 0 1 172.0136 -73)" class="st9 st1 st145">silly</text>
	<text transform="matrix(1 0 0 1 -102.0984 -181)" class="st11 st1 st146">thoughtful</text>
	<text transform="matrix(6.123234e-17 1 -1 6.123234e-17 174 110.1708)" class="st13 st1 st147">intelligent</text>
	<text transform="matrix(1 0 0 1 -164.248 -152)" class="st15 st1 st148">pretty</text>
	<text transform="matrix(1 0 0 1 35.5247 -182)" class="st17 st1 st149">beautifully</text>
	<text transform="matrix(1 0 0 1 -165.8385 -94)" class="st19 st1 st150">lazy</text>
	<text transform="matrix(1 0 0 1 174.0609 -91)" class="st21 st1 st151">sturdy</text>
	<text transform="matrix(6.123234e-17 1 -1 6.123234e-17 -235 -73.6399)" class="st23 st1 st152">easy</text>
	<text transform="matrix(6.123234e-17 1 -1 6.123234e-17 212 66.337)" class="st25 st1 st153">approachable</text>
	<text transform="matrix(1 0 0 1 93.9825 -168)" class="st27 st1 st154">handy</text>
	<text transform="matrix(1 0 0 1 -127.7422 -184)" class="st29 st1 st155">glad</text>
	<text transform="matrix(6.123234e-17 1 -1 6.123234e-17 145 139.1107)" class="st31 st1 st156">polite</text>
	<text transform="matrix(6.123234e-17 1 -1 6.123234e-17 172 -147.6264)" class="st33 st1 st157">coolest</text>
	<text transform="matrix(1 0 0 1 -183.3844 -167)" class="st35 st1 st158">awesome</text>
	<text transform="matrix(1 0 0 1 -209.614 -154)" class="st37 st1 st159">lively</text>
	<text transform="matrix(6.123234e-17 1 -1 6.123234e-17 -231 -114.9263)" class="st39 st1 st160">snappy</text>
	<text transform="matrix(6.123234e-17 1 -1 6.123234e-17 213 -93.8739)" class="st0 st1 st161">exciting</text>
	<text transform="matrix(1 0 0 1 47.1691 188)" class="st3 st1 st162">savvy</text>
	<text transform="matrix(1 0 0 1 -77.9772 114)" class="st5 st1 st163">crazy</text>
	<text transform="matrix(1 0 0 1 -237.0184 138)" class="st7 st1 st164">gracious</text>
	<text transform="matrix(6.123234e-17 1 -1 6.123234e-17 -27 -16.6302)" class="st9 st1 st165">little</text>
	<text transform="matrix(1 0 0 1 133.5707 190)" class="st11 st1 st166">eye_catching</text>
	<text transform="matrix(1 0 0 1 134.9423 -148)" class="st13 st1 st167">cheeky</text>
	<text transform="matrix(1 0 0 1 130.8192 -162)" class="st15 st1 st168">simple</text>
	<text transform="matrix(1 0 0 1 -131.7422 174)" class="st17 st1 st169">resourceful</text>
	<text transform="matrix(1 0 0 1 -172.6412 171)" class="st19 st1 st170">loves</text>
	<text transform="matrix(6.123234e-17 1 -1 6.123234e-17 214 1.9985)" class="st21 st1 st171">geeky</text>
	<text transform="matrix(6.123234e-17 1 -1 6.123234e-17 198 -135.2865)" class="st23 st1 st172">sneaky</text>
	<text transform="matrix(6.123234e-17 1 -1 6.123234e-17 -221 -158.3458)" class="st25 st1 st173">awhile</text>
	<text transform="matrix(6.123234e-17 1 -1 6.123234e-17 198 121.3678)" class="st27 st1 st174">unbelievably</text>
	<text transform="matrix(6.123234e-17 1 -1 6.123234e-17 198 -81.9553)" class="st29 st1 st175">funny</text>
	<text transform="matrix(1 0 0 1 -235.5637 150)" class="st31 st1 st176">crappy</text>
	<text transform="matrix(6.123234e-17 1 -1 6.123234e-17 158 146.1982)" class="st33 st1 st177">weird</text>
	<text transform="matrix(6.123234e-17 1 -1 6.123234e-17 -170 -44.4172)" class="st35 st1 st178">darn</text>
</g>
</svg>
