<?xml version="1.0" encoding="utf-8"?>
<!-- Generator: Adobe Illustrator 21.1.0, SVG Export Plug-In . SVG Version: 6.00 Build 0)  -->
<svg version="1.1" id="Layer_1" xmlns="http://www.w3.org/2000/svg" xmlns:xlink="http://www.w3.org/1999/xlink" x="0px" y="0px"
	 viewBox="0 0 302 244" style="enable-background:new 0 0 302 244;" xml:space="preserve">
<style type="text/css">
	.st0{fill:#1F77B4;}
	.st1{font-family:'Impact';}
	.st2{font-size:30px;}
	.st3{fill:#AEC7E8;}
	.st4{font-size:25.085px;}
	.st5{fill:#FF7F0E;}
	.st6{font-size:22.5238px;}
	.st7{fill:#FFBB78;}
	.st8{font-size:21.797px;}
	.st9{fill:#2CA02C;}
	.st10{font-size:20.6271px;}
	.st11{fill:#98DF8A;}
	.st12{font-size:20.7205px;}
	.st13{fill:#D62728;}
	.st14{font-size:19.4385px;}
	.st15{fill:#FF9896;}
	.st16{font-size:16.8143px;}
	.st17{fill:#9467BD;}
	.st18{font-size:15.6462px;}
	.st19{fill:#C5B0D5;}
	.st20{font-size:15.3569px;}
	.st21{fill:#8C564B;}
	.st22{font-size:15.9656px;}
	.st23{fill:#C49C94;}
	.st24{font-size:14.7545px;}
	.st25{fill:#E377C2;}
	.st26{font-size:14.6665px;}
	.st27{fill:#F7B6D2;}
	.st28{font-size:14.6534px;}
	.st29{fill:#7F7F7F;}
	.st30{font-size:14.5578px;}
	.st31{fill:#C7C7C7;}
	.st32{font-size:14.4362px;}
	.st33{fill:#BCBD22;}
	.st34{font-size:14.388px;}
	.st35{fill:#DBDB8D;}
	.st36{font-size:14.271px;}
	.st37{fill:#17BECF;}
	.st38{font-size:14.8295px;}
	.st39{fill:#9EDAE5;}
	.st40{font-size:13.379px;}
	.st41{font-size:13.1115px;}
	.st42{font-size:13.0998px;}
	.st43{font-size:12.9739px;}
	.st44{font-size:12.8274px;}
	.st45{font-size:12.798px;}
	.st46{font-size:12.5521px;}
	.st47{font-size:12.3096px;}
	.st48{font-size:12.1765px;}
	.st49{font-size:12.0392px;}
	.st50{font-size:12.8841px;}
	.st51{font-size:11.8633px;}
	.st52{font-size:11.7964px;}
	.st53{font-size:11.1148px;}
	.st54{font-size:11.0693px;}
	.st55{font-size:10.9733px;}
	.st56{font-size:10.8253px;}
	.st57{font-size:10.5855px;}
	.st58{font-size:10.2662px;}
	.st59{font-size:10.2225px;}
	.st60{font-size:10.1998px;}
	.st61{font-size:10.1254px;}
	.st62{font-size:10.1099px;}
</style>
<g transform="translate(246,200)">
	<text transform="matrix(6.123234e-17 1 -1 6.123234e-17 -133 -198.4639)" class="st0 st1 st2">sassy</text>
	<text transform="matrix(1 0 0 1 -77.5662 -116)" class="st3 st1 st4">sexy</text>
	<text transform="matrix(6.123234e-17 1 -1 6.123234e-17 8 -91.1678)" class="st5 st1 st6">gorgeous</text>
	<text transform="matrix(1 0 0 1 -184.9771 -26)" class="st7 st1 st8">cute</text>
	<text transform="matrix(1 0 0 1 -165.3787 4)" class="st9 st1 st10">beautiful</text>
	<text transform="matrix(1 0 0 1 -1.4403 -97)" class="st11 st1 st12">lovely</text>
	<text transform="matrix(1 0 0 1 -37.1184 -172)" class="st13 st1 st14">fabulous</text>
	<text transform="matrix(6.123234e-17 1 -1 6.123234e-17 30 -84.3463)" class="st15 st1 st16">comfy</text>
	<text transform="matrix(6.123234e-17 1 -1 6.123234e-17 -109 -163.8827)" class="st17 st1 st18">tasteful</text>
	<text transform="matrix(6.123234e-17 1 -1 6.123234e-17 -31 4.0009)" class="st19 st1 st20">picky</text>
	<text transform="matrix(1 0 0 1 -98.0209 29)" class="st21 st1 st22">delightful</text>
	<text transform="matrix(6.123234e-17 1 -1 6.123234e-17 -179 -190.9535)" class="st23 st1 st24">wonderful</text>
	<text transform="matrix(6.123234e-17 1 -1 6.123234e-17 -27 -164.0895)" class="st25 st1 st26">charming</text>
	<text transform="matrix(1 0 0 1 -116.8035 -101)" class="st27 st1 st28">scary</text>
	<text transform="matrix(1 0 0 1 -85.3243 -153)" class="st29 st1 st30">sweetest</text>
	<text transform="matrix(1 0 0 1 -224.0305 -84)" class="st31 st1 st32">helpful</text>
	<text transform="matrix(6.123234e-17 1 -1 6.123234e-17 -180 -18.6358)" class="st33 st1 st34">elegant</text>
	<text transform="matrix(1 0 0 1 17.3947 -156)" class="st35 st1 st36">sweet</text>
	<text transform="matrix(6.123234e-17 1 -1 6.123234e-17 -149 -177.3824)" class="st37 st1 st38">prettiest</text>
	<text transform="matrix(6.123234e-17 1 -1 6.123234e-17 -164 -137.3762)" class="st39 st1 st40">wow</text>
	<text transform="matrix(1 0 0 1 -134.7485 -38)" class="st0 st1 st41">fun</text>
	<text transform="matrix(6.123234e-17 1 -1 6.123234e-17 -198 -62.2489)" class="st3 st1 st42">stylish</text>
	<text transform="matrix(6.123234e-17 1 -1 6.123234e-17 -110 -70.1101)" class="st5 st1 st43">witty</text>
	<text transform="matrix(1 0 0 1 -131.7408 18)" class="st7 st1 st44">kinda</text>
	<text transform="matrix(1 0 0 1 16.7591 -142)" class="st9 st1 st45">playful</text>
	<text transform="matrix(1 0 0 1 -234.0828 14)" class="st11 st1 st46">attractive</text>
	<text transform="matrix(1 0 0 1 -63.3712 -101)" class="st13 st1 st47">corny</text>
	<text transform="matrix(1 0 0 1 -13.764 -137)" class="st15 st1 st48">funky</text>
	<text transform="matrix(1 0 0 1 -42.7329 -54)" class="st17 st1 st49">pleasant</text>
	<text transform="matrix(1 0 0 1 -231.0939 -117)" class="st19 st1 st50">considerate</text>
	<text transform="matrix(1 0 0 1 -6.4142 -120)" class="st21 st1 st51">quirky</text>
	<text transform="matrix(1 0 0 1 -107.3212 -173)" class="st23 st1 st52">amazing</text>
	<text transform="matrix(1 0 0 1 -229.9465 -104)" class="st25 st1 st53">brave</text>
	<text transform="matrix(6.123234e-17 1 -1 6.123234e-17 -13 -112.6364)" class="st27 st1 st54">perfect</text>
	<text transform="matrix(1 0 0 1 -58.4277 40)" class="st29 st1 st55">ok</text>
	<text transform="matrix(6.123234e-17 1 -1 6.123234e-17 -242 -123.5571)" class="st31 st1 st56">amazingly</text>
	<text transform="matrix(1 0 0 1 -87.0296 -141)" class="st33 st1 st57">wonderfully</text>
	<text transform="matrix(6.123234e-17 1 -1 6.123234e-17 -75 -109.2096)" class="st35 st1 st58">conscientious</text>
	<text transform="matrix(1 0 0 1 -216.8214 -67)" class="st37 st1 st59">boring</text>
	<text transform="matrix(6.123234e-17 1 -1 6.123234e-17 -55 -84.1204)" class="st39 st1 st60">refreshing</text>
	<text transform="matrix(6.123234e-17 1 -1 6.123234e-17 -13 -26.9387)" class="st0 st1 st61">nicer</text>
	<text transform="matrix(6.123234e-17 1 -1 6.123234e-17 -87 -86.6345)" class="st3 st1 st62">enjoyable</text>
</g>
</svg>
